<svg width="30" height="30" viewBox="0 0 30 30" fill="none" xmlns="http://www.w3.org/2000/svg">
<path fill-rule="evenodd" clip-rule="evenodd" d="M6.90034 6.90059C8.97272 4.8282 11.8383 3.54344 15 3.54344C18.1616 3.54344 21.0272 4.8282 23.0996 6.90059C25.1719 8.97297 26.4567 11.8386 26.4567 15.0002C26.4567 18.1618 25.1719 21.0274 23.0996 23.0998C21.0272 25.1722 18.1616 26.457 15 26.457C11.8383 26.457 8.97272 25.1722 6.90034 23.0998C4.82796 21.0274 3.54319 18.1618 3.54319 15.0002C3.54319 11.8386 4.82796 8.97297 6.90034 6.90059ZM29.3 15.0002C29.3 11.0509 27.6968 7.47594 25.1105 4.88965C22.5242 2.30336 18.9492 0.700195 15 0.700195C11.0507 0.700195 7.47569 2.30336 4.8894 4.88965C2.30312 7.47594 0.699951 11.0509 0.699951 15.0002C0.699951 18.9495 2.30312 22.5245 4.8894 25.1107C7.47569 27.697 11.0507 29.3002 15 29.3002C18.9492 29.3002 22.5242 27.697 25.1105 25.1107C27.6968 22.5245 29.3 18.9495 29.3 15.0002Z" fill="#0B7572"/>
<path fill-rule="evenodd" clip-rule="evenodd" d="M11.694 11.7433C11.694 10.7266 12.0515 9.90548 12.772 9.27985C13.2524 8.85532 13.9674 8.59837 14.9115 8.50341V7.82192H15.7549V8.50341C16.5816 8.58161 17.2408 8.82739 17.7268 9.22958C18.3524 9.74349 18.7267 10.4585 18.8495 11.3634L17.3749 11.5868C17.2911 11.0283 17.1179 10.5981 16.8498 10.3021C16.5872 10.006 16.2186 9.80493 15.7549 9.70997V13.8212C16.4699 14 16.9503 14.1452 17.1793 14.2458C17.6206 14.4413 17.9837 14.6759 18.263 14.9552C18.5423 15.2345 18.7602 15.5696 18.911 15.955C19.0618 16.3405 19.14 16.7594 19.14 17.2063C19.14 18.195 18.8216 19.0161 18.196 19.6809C17.5704 20.3456 16.7548 20.6975 15.7549 20.7422V22.1834H14.9115V20.759C14.1965 20.6696 13.6211 20.5076 13.1742 20.2786C12.7274 20.0495 12.3419 19.6753 12.0179 19.167C11.694 18.6531 11.504 18.0274 11.4538 17.2901L12.8893 17.022C13.0011 17.7872 13.1966 18.3514 13.4759 18.7089C13.8781 19.2172 14.3584 19.4965 14.917 19.558V15.0222C14.3305 14.9105 13.7328 14.6815 13.1184 14.3407C12.6659 14.0838 12.314 13.7374 12.0682 13.285C11.8224 12.8381 11.6995 12.3298 11.6995 11.7544L11.694 11.7433ZM25.5024 14.9999C25.5024 12.1008 24.3293 9.47536 22.4245 7.57614C20.5253 5.67692 17.8999 4.49829 15.0008 4.49829C12.1017 4.49829 9.47634 5.67134 7.57712 7.57614C5.6779 9.47536 4.49927 12.1008 4.49927 14.9999C4.49927 17.899 5.67231 20.5243 7.57712 22.4236C9.47634 24.3228 12.1017 25.5014 15.0008 25.5014C17.8999 25.5014 20.5253 24.3284 22.4245 22.4236C24.3238 20.5243 25.5024 17.899 25.5024 14.9999Z" fill="#0B7572"/>
<path fill-rule="evenodd" clip-rule="evenodd" d="M14.9115 13.637V9.69336C14.3585 9.77715 13.9172 10.0006 13.5988 10.3581C13.2804 10.7156 13.1184 11.1401 13.1184 11.6373C13.1184 12.1232 13.2525 12.531 13.5262 12.855C13.7999 13.1846 14.2579 13.4471 14.9059 13.637H14.9115Z" fill="#0B7572"/>
<path fill-rule="evenodd" clip-rule="evenodd" d="M17.6655 17.2957C17.6655 16.7818 17.537 16.3628 17.28 16.05C17.0231 15.7372 16.5092 15.4523 15.7439 15.2065V19.5468C16.2969 19.4798 16.755 19.2396 17.118 18.8262C17.4811 18.4129 17.6599 17.9046 17.6599 17.2957H17.6655Z" fill="#0B7572"/>
</svg>
