<svg width="30" height="33" viewBox="0 0 30 33" fill="none" xmlns="http://www.w3.org/2000/svg">
<path fill-rule="evenodd" clip-rule="evenodd" d="M3.48614 9.85718C1.73449 12.2322 0.699707 15.1682 0.699707 18.3474C0.699707 21.5265 1.73449 24.4626 3.48614 26.8376C5.07572 26.2516 6.84607 25.7841 8.74733 25.46C8.97174 25.4226 9.19615 25.3852 9.42056 25.354C8.98421 23.2595 8.7411 20.8782 8.7411 18.3536C8.7411 17.1879 8.79096 16.0534 8.8907 14.9625L8.41071 15.7417L5.00715 10.3746C4.48352 10.2187 3.97237 10.0442 3.48614 9.86341V9.85718Z" fill="#0B7572"/>
<path fill-rule="evenodd" clip-rule="evenodd" d="M8.90255 26.3889C7.17584 26.6819 5.56132 27.0996 4.10889 27.617C4.4829 28.0596 4.88186 28.4772 5.31198 28.8637C7.29427 30.6902 9.78773 31.9618 12.5555 32.4356C11.7576 31.6314 11.0469 30.447 10.4672 28.9634C10.1493 28.1531 9.86877 27.2492 9.62565 26.2705C9.38254 26.3079 9.13943 26.3453 8.90255 26.3889Z" fill="#0B7572"/>
<path fill-rule="evenodd" clip-rule="evenodd" d="M10.5801 26.1458C10.8045 27.0435 11.0663 27.8726 11.3593 28.6206C12.3317 31.1078 13.6221 32.6475 15.006 32.6475C16.3898 32.6475 17.6802 31.1078 18.6526 28.6206C18.9456 27.8726 19.2074 27.0435 19.4318 26.1458C18.0168 25.9775 16.5332 25.884 15.0122 25.884C13.485 25.884 12.0076 25.9713 10.5925 26.1458H10.5801Z" fill="#0B7572"/>
<path fill-rule="evenodd" clip-rule="evenodd" d="M9.69482 18.3414C9.69482 20.8286 9.93794 23.1725 10.3681 25.2109C11.8579 25.0301 13.4101 24.9303 15.0059 24.9303C16.6017 24.9303 18.1539 25.0301 19.6437 25.2109C20.0738 23.1662 20.3169 20.8286 20.3169 18.3414C20.3169 15.8542 20.0738 13.5103 19.6437 11.4719C18.1539 11.6527 16.6017 11.7524 15.0059 11.7524C13.6282 11.7524 12.2818 11.6776 10.9852 11.5405L10.4055 12.4818L10.0875 12.9992C9.83196 14.6511 9.69482 16.4526 9.69482 18.3476V18.3414Z" fill="#0B7572"/>
<path fill-rule="evenodd" clip-rule="evenodd" d="M11.5337 10.6428C12.6558 10.7488 13.8152 10.7986 14.9996 10.7986C16.5268 10.7986 18.0042 10.7114 19.4193 10.5368C19.1948 9.63919 18.933 8.81012 18.6401 8.06208C17.6676 5.57486 16.3772 4.03516 14.9934 4.03516C14.582 4.03516 14.1768 4.1723 13.784 4.43411C13.8028 4.55255 13.8152 4.67722 13.8215 4.80189C13.8215 4.80813 13.8215 4.82059 13.8215 4.82683C13.8215 4.8393 13.8215 4.858 13.8277 4.87046C13.8339 4.9328 13.8402 4.99514 13.8402 5.05747C13.8402 5.06371 13.8402 5.06371 13.8402 5.07617C13.8402 5.15098 13.8402 5.21955 13.8402 5.29435C13.8402 6.39147 13.3851 7.60079 12.8116 8.52961L11.5212 10.6366L11.5337 10.6428Z" fill="#0B7572"/>
<path fill-rule="evenodd" clip-rule="evenodd" d="M19.531 7.71909C19.8489 8.52946 20.1294 9.43334 20.3725 10.412C20.6157 10.3746 20.8588 10.3372 21.0957 10.2936C22.8224 10.0006 24.4369 9.58295 25.8893 9.06556C25.5153 8.62297 25.1101 8.20531 24.6862 7.8126C22.7102 5.99237 20.2105 4.72071 17.449 4.24072C18.2469 5.04486 18.9575 6.22925 19.5372 7.71286L19.531 7.71909Z" fill="#0B7572"/>
<path fill-rule="evenodd" clip-rule="evenodd" d="M20.5789 11.341C21.0152 13.4355 21.2583 15.8168 21.2583 18.3414C21.2583 20.866 21.0152 23.2473 20.5789 25.3418C20.8033 25.373 21.0277 25.4104 21.2521 25.4478C23.1533 25.7719 24.9237 26.2394 26.5133 26.8254C28.2649 24.4504 29.2997 21.5143 29.2997 18.3352C29.2997 15.156 28.2649 12.22 26.5133 9.84497C24.9237 10.4309 23.1533 10.8985 21.2521 11.2226C21.0277 11.26 20.8033 11.2974 20.5789 11.3286V11.341Z" fill="#0B7572"/>
<path fill-rule="evenodd" clip-rule="evenodd" d="M20.3739 26.2767C20.137 27.2554 19.8503 28.1593 19.5324 28.9697C18.9526 30.447 18.2482 31.6377 17.4441 32.4418C20.2118 31.9618 22.7053 30.6964 24.6813 28.8699C25.1052 28.4772 25.5104 28.0596 25.8844 27.617C24.432 27.0996 22.8175 26.6882 21.0908 26.3889C20.8539 26.3453 20.6108 26.3079 20.3677 26.2705L20.3739 26.2767Z" fill="#0B7572"/>
<path fill-rule="evenodd" clip-rule="evenodd" d="M9.84464 6.01742C9.45815 6.40391 8.92206 6.64702 8.32987 6.64702C7.73767 6.64702 7.20158 6.41014 6.81509 6.01742C6.42861 5.63094 6.1855 5.09484 6.1855 4.50265C6.1855 3.91045 6.42237 3.37436 6.81509 2.98787C7.20158 2.60139 7.73767 2.35828 8.32987 2.35828C8.92206 2.35828 9.45815 2.59516 9.84464 2.98787C10.2311 3.37436 10.4742 3.91045 10.4742 4.50265C10.4742 5.09484 10.2374 5.63094 9.84464 6.01742ZM9.63269 11.9269C9.62023 11.9456 9.60776 11.9643 9.59529 11.983L9.63269 11.9269ZM12.8867 4.88913C12.8867 4.89537 12.8867 4.9016 12.8867 4.9016C12.8867 4.89537 12.8867 4.88913 12.8867 4.88913ZM5.10708 2.07153C4.278 2.9006 3.76685 4.04136 3.76685 5.30055C3.76685 6.06729 4.1845 7.13324 4.7954 8.28646C4.80163 8.2927 4.80786 8.29893 4.82033 8.30516C4.8515 8.33633 4.88267 8.37373 4.90137 8.41114L5.31279 9.05943C5.31902 9.06567 5.31902 9.0719 5.32525 9.07814L8.4109 13.9404L9.07167 12.8682C9.08414 12.8495 9.0966 12.8245 9.10907 12.8058L9.60776 11.9955L9.64516 11.9331L12.0326 8.04335C12.5625 6.9774 12.9178 6.01119 12.9178 5.30679C12.9178 5.22575 12.9178 5.16965 12.9178 5.12601C12.9178 5.11978 12.9178 5.11354 12.9178 5.11354C12.9178 5.07614 12.9116 5.02627 12.9054 4.96394C12.9054 4.95147 12.9054 4.939 12.8991 4.9203C12.8991 4.91407 12.8991 4.90783 12.8991 4.90783C12.7994 3.81071 12.3132 2.8258 11.5776 2.09023C10.7485 1.26116 9.60776 0.75 8.34857 0.75C7.08937 0.75 5.94862 1.26116 5.11954 2.09023L5.10708 2.07153Z" fill="#0B7572"/>
</svg>
